<svg width="56" height="56" viewBox="0 0 56 56" fill="none" xmlns="http://www.w3.org/2000/svg">
<mask id="mask0_4203_48" style="mask-type:alpha" maskUnits="userSpaceOnUse" x="0" y="0" width="56" height="56">
<path d="M37.7756 31.3776V34.4402C42.5755 29.6403 45.7773 34.4402 45.7773 34.4402C62.4434 22.7077 50.31 1.11367 50.31 1.11367C50.31 1.11367 49.9091 10.7135 41.9129 16.577V25.7759C41.7793 28.4431 39.7747 30.1749 37.7756 31.3776Z" fill="#D0A85C"/>
<path d="M9.90613 34.5739C9.90613 34.5739 12.1724 30.9767 15.9088 33.1094L11.6435 26.8394L15.3742 17.9301C5.77442 12.061 5.35123 1.26402 5.35123 1.26402C5.35123 1.26402 -6.75993 22.8302 9.90613 34.5739Z" fill="#D0A85C"/>
<path d="M14.9733 46.7128L18.0414 36.3112L17.9078 36.0439L10.7079 43.3774C8.97306 45.1362 6.64333 46.1829 4.17624 46.3119H1.67048L1.11365 47.6428L7.79566 54.0464L14.9733 46.7128Z" fill="#D0A85C"/>
<path d="M51.3791 46.7129C50.147 46.6949 48.9316 46.4254 47.8074 45.9207C46.6832 45.4161 45.6741 44.6871 44.8418 43.7783L38.3102 37.2411L40.4429 47.1082L47.7764 54.5698L54.4584 48.1718L53.9015 46.8354L51.3791 46.7129Z" fill="#D0A85C"/>
<path d="M31.1103 23.7768C31.1103 23.9105 30.9767 24.0441 30.9767 24.1722H31.3776C34.5794 24.4395 35.643 25.6422 36.4448 28.4431C36.9442 28.1624 37.3939 27.8012 37.7757 27.374C38.3325 26.8172 38.7111 26.4441 38.7111 25.9095V15.6415C38.7041 15.3822 38.6068 15.1336 38.436 14.9384C38.2652 14.7432 38.0317 14.6138 37.7757 14.5724L20.3078 11.3761H20.046C19.6931 11.3761 19.3546 11.5163 19.105 11.7659C18.8554 12.0155 18.7152 12.354 18.7152 12.707V16.4433L32.5804 18.3087L31.1103 23.7768Z" fill="#D0A85C"/>
<path d="M33.5104 30.0691C32.8422 27.1345 32.7085 27.5355 30.3086 27.4018L22.7078 26.7281V24.5731H25.7759C26.2959 24.5851 26.8043 24.4187 27.2166 24.1016C27.6289 23.7845 27.9203 23.3358 28.0422 22.8302L28.5991 20.9648L18.0415 19.4892L15.2573 26.2937L21.7946 35.7599L18.7097 46.0447L27.775 54.5698L36.9794 46.1783C36.9794 46.1783 33.5104 30.3085 33.5104 30.0301" fill="#D0A85C"/>
<path d="M27.7749 1.24174L25.1077 6.97157L27.7749 9.10425L30.4421 6.97157L27.7749 1.24174Z" fill="#D0A85C"/>
<path d="M34.5795 5.23981L35.3757 8.58082H38.7167L40.3149 2.45564L34.5795 5.23981Z" fill="#D0A85C"/>
<path d="M16.8443 8.57525H20.1853L20.3189 8.17433L20.9871 5.23981L15.2517 2.45564L16.8443 8.57525Z" fill="#D0A85C"/>
</mask>
<g mask="url(#mask0_4203_48)">
<rect x="-1.54675" width="55.6835" height="55.6835" fill="black"/>
</g>
</svg>
